<svg xmlns="http://www.w3.org/2000/svg" viewBox="0 0 40 80" style="enable-background:new 0 0 40 80" xml:space="preserve" fill="currentColor">
	<path d="M4.876 15.957v-.026c-1.395-.113-2.094-.519-2.094-1.218 0-.821.075-2.064.223-3.735.148-1.671.223-2.906.223-3.71 0-.226-.052-.547-.157-.958-.106-.413-.158-.733-.158-.96 0-.802.427-1.308 1.284-1.518l.757.18.132-.045-.026-.101c2.844.098 7.093.214 12.746.347 2.548-.086 6.387-.174 11.516-.262L30.5 5.064l-.261 7.732c0 .261.018.587.051.975a10 10 0 0 1 .054.764c0 .68-.429 1.082-1.283 1.205a7.87 7.87 0 0 1-1.152.058c-.785.009-1.71-.12-2.775-.385l-.522-.737c0-.245-.009-.732-.027-1.463a20.952 20.952 0 0 1 0-1.518c.035-.564.122-1.029.263-1.398-.123-.28-.367-.523-.734-.733-.367-.21-.594-.378-.68-.504-.21.047-.498.071-.865.071-.436-.024-.732-.025-.889-.003a1.752 1.752 0 0 0-.314.071c-.123-.244-.375-.609-.759-1.096l-.419.585.209.65c-.122-.071-.365.016-.733.262l-.025 4.4c-.333.397-.725.602-1.179.615l-.524-.162c-.436.063-1.08.12-1.936.174-.699.012-1.257-.135-1.676-.441l-.156-2.516c-.104-1.434-.208-2.178-.314-2.232l.262-.64-.523-.265-.394.317.21.312v.156c-.297-.098-.707-.144-1.231-.138l-.653-.01.026-.162-.419-.462c-.053.023-.167.135-.34.335-.175.199-.297.305-.366.314l-.236-.045-.576-.466a3.867 3.867 0 0 1-1.282 1.099c-.157.354-.236.785-.236 1.29 0 .332.049.818.144 1.458.096.641.144 1.119.144 1.433 0 .261-.026.509-.079.745l.209.257c-.035.267-.192.494-.471.683a1.66 1.66 0 0 1-.889.296c-1.466-.017-2.226-.013-2.278.012m-.759-7.612c.14-.142.21-.23.21-.265v-.053l-.367.158.157.16zm1.519-1.29.287-.016V6.83l-.287-.011v.236zm.628.381c.069.007.183-.044.34-.153l-.209-.154c-.123.104-.184.193-.184.262l.053.045zm.131 2.024c.139-.056.209-.162.209-.319v-.182l-.365.313.156.188zm0-4.11.287.011v-.262l-.287.014v.237zm.759 5.884.288.011v-.262l-.288.016v.235zm.392-1.154.367-.472-.367-.157c0 .07-.034.149-.104.237-.071.089-.105.151-.105.186 0 .086.07.156.209.206m.759-1.418h.184V8.53l-.184.132zm1.702-1.92.261.016v-.236l-.261.011v.209zm.025.991c.158.013.271-.134.342-.441l-.053.007c-.21-.003-.314.106-.314.334v.104l.025-.004zm1.415-1.825c.173.012.26-.081.26-.274 0-.226-.13-.398-.392-.518-.121.07-.183.165-.183.289v.339c.087.057.192.112.315.164m1.752 1.241.394-.476c-.036-.099-.123-.156-.262-.171-.193.01-.288.067-.288.171v.237c0 .104.052.185.156.239m1.912 1.846.208-.134-.392-.152-.026.055c0 .017.069.094.21.231m0 1.1.208-.161-.208-.128-.184.132.184.157zm.757-4.479v-.185l-.364-.13.364.315zm-.364.837.26.014v-.235l-.26.012v.209zm.522 2.096.236-.006c.122-.122.184-.201.184-.237l-.028-.047-.392.29zm.392-1.232c.28-.269.419-.522.419-.768 0-.051-.018-.154-.052-.305-.017.071-.104.201-.261.39-.158.188-.236.333-.236.439 0 .087.044.168.13.244m.603 2.924.157.003v-.132l-.157.129zm.157 1.101.209-.161-.209-.152-.157.152.157.161zm1.151-2.938a.585.585 0 0 0 .027-.214c0-.139-.14-.434-.42-.881l-.392.318c.106.158.214.326.327.502a.548.548 0 0 0 .458.275m.76-1.706.209-.134-.602-.308.393.442zm0 1.257.209-.188-.209-.126-.184.131.184.183zm.497-.778.053.018.025-.082c0-.052-.069-.13-.21-.232l-.156.128c.123.121.218.177.288.168m1.021.612.157-.154-.157-.16-.21.16.21.154zm.366-.889.078-.011c.053-.008.159-.067.315-.176l-.209-.153c-.14.142-.21.229-.21.264l.026.076zm1.911.825.262.016v-.263l-.262.012v.235zm.366.864.184-.184-.394-.126v.052c0 .035.071.121.21.258m.551-1.099.182-.158v-.13l-.182.288zm1.727 1.243c.122-.016.183-.095.183-.234 0-.106-.061-.176-.183-.21-.157.074-.236.147-.236.217.052.062.13.137.236.227m0-3.48.261.014v-.234l-.261-.016v.236zm0 5.967h.183v-.157l-.183.157zm.549-1.624.289-.014v-.208l-.289-.013v.235zm.759-.631.288.01v-.234l-.288.015v.209zm.759 3.582.288-.016v-.209l-.288-.011v.236zM4.72 30.924l-.026-.048c-.803-.078-1.354-.234-1.65-.471l-.209-.414c.122-.263.183-.56.183-.891 0-.208-.029-.518-.092-.928-.06-.41-.091-.72-.091-.93 0-.366.122-.75.367-1.151.854-.454 2.521-.921 4.998-1.397 2.932-.56 4.738-.94 5.418-1.142-.051.879.201 1.438.76 1.671.121-.088.183-.218.183-.393v-.55l-.315-.242c.018-.09.065-.202.145-.335.078-.134.117-.236.117-.305l-.34-.318.21-.187c-.123-.243-.463-.44-1.021-.587-.663-.202-1.082-.359-1.257-.474l-.627.299c-.664-.097-1.047-.137-1.152-.122a.763.763 0 0 0-.524.284l-2.643-.013c-.89.004-2.19-.063-3.9-.2-.314-.41-.472-.929-.472-1.557 0-.978.027-1.583.08-1.817.139-.614.496-.961 1.072-1.043.367-.052.82-.013 1.362.12l.236-.244c2.18.141 5.381.284 9.605.43 2.059-.033 5.147-.074 9.266-.124l.26.147 4.634-.272c.557-.026.899.508 1.02 1.608.018.799.035 1.6.051 2.4 0 .157.011.278.027.363-.487.594-1.692 1.159-3.613 1.696-.54.165-1.969.501-4.291 1.007l.419-.48c.017-.054-.122-.199-.419-.437-.542.357-1.248.921-2.12 1.692l-.157.65v.445c.228.229.48.377.759.441l.237-.295c0-.158-.089-.258-.263-.304.995.102 2.216.128 3.665.078 2.076-.088 3.297-.132 3.663-.132.768.011 1.249.048 1.44.108.315.112.559.407.733.889-.087.221-.131.516-.131.883 0 .104.01.26.027.466v.499c0 1.064-.47 1.638-1.414 1.72-.087-.109-.244-.148-.47-.116-.141.003-.245-.035-.315-.112-4.467-.077-9.78-.126-15.941-.151-1.028-.011-3.524.087-7.484.286m1.333-3.254.186-.182-.186-.13-.208.134.208.178zm2.2.472.052-.008.027-.16c0-.14-.07-.236-.21-.285a3.311 3.311 0 0 0-.209.213c.052.167.165.246.34.24M8.305 19l.209-.004v-.445L8.305 19zm.577 7.664.286.012v-.236l-.286.015v.209zm.653-.983.132-.018v-.054a1.884 1.884 0 0 0-.236-.228l-.157.128c.105.072.191.13.261.172m-.026 2.177c.034-.006.14-.065.314-.177l-.156-.16c-.158.145-.236.225-.236.243v.078a.186.186 0 0 1 .078.016m.681-7.427c.158-.074.236-.164.236-.268 0-.089-.078-.157-.236-.204a2.54 2.54 0 0 1-.183.183c0 .053.061.15.183.289m0 6.177c.158-.059.236-.138.236-.242 0-.106-.078-.182-.236-.229-.035.04-.096.101-.183.183 0 .053.061.149.183.288m.759-1.234c.157-.058.235-.138.235-.243 0-.175-.131-.261-.392-.257l-.132-.008a.27.27 0 0 0-.078.036l.367.472zm.498 3.724.104-.015v-.053c0-.175-.104-.264-.314-.268l-.053.006v.158c.07.06.157.117.263.172m.26-.953c.263-.178.393-.303.393-.37 0-.175-.088-.259-.261-.252-.21-.005-.314.098-.314.307 0 .175.06.279.182.315m.393-1.209c.227-.242.342-.536.342-.887 0-.313-.115-.594-.342-.84-.261.141-.393.3-.393.475 0 .139.067.349.198.627.13.276.195.486.195.625m.368-2.172c0-.088.082-.204.247-.35.167-.147.25-.236.25-.272 0-.069-.037-.116-.105-.141l-.576.58.184.183zm.104 2.785c.017-.002.112-.059.288-.173l-.392-.282-.184.156c0 .193.095.292.288.299m.471-5.59h.182c.088-.064.167-.137.236-.217l-.052-.096-.366.313zm.575 4.498c.123-.158.183-.297.183-.419 0-.435-.253-.714-.758-.833.121.105.231.32.327.647.095.326.178.528.248.605m-.209-5.702.603-.95c-.49.087-.734.306-.734.654a.37.37 0 0 0 .131.296m.209 8.005c.14-.019.21-.091.21-.213 0-.123-.07-.19-.21-.205l-.209.135v.052c0 .016.07.095.209.231m.394-1.836v-.157l-.211.005.211.152zm1.02-.591c.209.004.314-.081.314-.253 0-.036-.131-.118-.393-.246-.261-.129-.392-.227-.392-.296l-.183.156c.087.214.261.433.523.658l.131-.019zm.707-4.315c.104.003.218-.014.339-.048-.278-.031-.519-.222-.72-.578-.201-.354-.396-.572-.588-.648l-.366.287c.226.387.384.616.471.692.21.197.496.295.864.295m-.969 6.316c.401-.023.601-.27.601-.742 0-.453-.156-.684-.47-.691-.262.004-.393.249-.393.737 0 .279.087.512.262.696m0-4.817c.105-.015.157-.091.157-.232 0-.104-.052-.174-.157-.212l-.209.135v.051c0 .036.069.122.209.258m.445 1.874c.192.007.289-.059.289-.198 0-.192-.115-.289-.341-.292l-.026.004c-.141.142-.21.229-.21.265v.053c.087.057.184.113.288.168m.575-.764c.193-.01.288-.11.288-.301 0-.176-.13-.34-.392-.495-.122.035-.182.114-.182.237v.34c0 .016.008.033.025.048.069.06.157.117.261.171m-.104 2.058.288.01v-.209l-.288-.011v.21zm.392-6.548.184-.157-.394-.337v.158c0 .174.071.286.21.336m0 1.388c.14-.056.21-.136.21-.24v-.105a.67.67 0 0 0-.026-.127l-.394.292.21.18zm-.156 1.409c.104-.05.217-.11.34-.179l-.184-.157c-.139.142-.21.221-.21.239v.079l.054.018zm.156 4.794.184-.183-.394-.286v.107c0 .173.071.294.21.362m.943-2.02c.104-.084.157-.17.157-.257 0-.071-.148-.185-.445-.343-.297-.157-.453-.271-.471-.338l-.184.157.943.781zm-.759 4.505.184-.183-.368-.156v.052c0 .035.061.13.184.287m.367-9.447.208-.162-.391-.31-.184.158.367.314zm.104 6.345.104-.016c.14-.089.21-.24.21-.448 0-.209-.122-.315-.366-.314-.157-.013-.235.059-.235.216v.394a3.7 3.7 0 0 0 .287.168m1.047-2.192c.227-.19.341-.389.341-.599 0-.279-.167-.587-.497-.923a35.413 35.413 0 0 1-.787-.803c-.139.054-.208.169-.208.344v.157c.278.151.496.443.653.875.175.497.342.814.498.949m-.184-2.147h.368c.035-.039.052-.121.052-.242 0-.036-.132-.583-.392-1.646-.245.716-.367 1.134-.367 1.257 0 .263.113.472.339.631m.76 5.101.367-.472c-.332-.109-.56-.364-.681-.767-.139-.45-.288-.717-.446-.8a.634.634 0 0 0-.052.27c0 .296.271.887.812 1.769m-.209-7.429c.138-.056.209-.135.209-.239 0-.089-.071-.166-.209-.234-.053.06-.122.132-.211.215 0 .034.071.12.211.258m0 9.604v-.314l-.183.158.183.156zm.576-5.867.052-.007c.034-.004.148-.055.34-.152l-.759-.781-.209.159c.121.036.24.166.353.395.114.227.188.356.223.386m-.367 1.598.287-.015v-.209l-.287-.012v.236zm.445.563.104-.014-.366-.287v.129c.104.074.192.131.262.172m.026 2.485c.193.006.288-.104.288-.329a.347.347 0 0 0-.21-.338c-.017.02-.083.082-.195.185-.115.103-.171.19-.171.26v.053c.087.057.184.114.288.169m-.104-7.368.288-.015v-.208l-.288-.011v.234zm1.125 2.404c.262-.247.393-.412.393-.501 0-.192-.096-.292-.289-.298-.156.005-.253.062-.288.172-.087-.11-.148-.302-.183-.577-.035-.274-.095-.439-.183-.496-.018.071-.088.213-.209.421-.121.211-.184.359-.184.446 0 .14.07.261.21.362l.339-.31.394.781zm-.733 1.676c.122-.017.183-.087.183-.209 0-.123-.061-.201-.183-.236l-.21.134v.079c0 .035.07.112.21.232m.339 2.202c.071-.079.141-.16.21-.24v-.078l-.366.132.156.186zm.394-6.521c.139-.019.209-.091.209-.214 0-.122-.07-.199-.209-.231l-.184.131v.053c0 .016.061.105.184.261m0 4.633.209-.136-.209-.153-.184.157.184.132zm0 1.021.313.007v-.235l-.313.018v.21zm.759-4.087a.541.541 0 0 0 .026-.161c0-.122-.105-.431-.314-.924a2.61 2.61 0 0 0-.105-.168l-.157.128c0 .035.043.246.131.635.053.254.191.416.419.49m0 1.518.366-.288-.366-.289-.393.293.393.284zm.21-3.223c.156-.127.234-.252.234-.375 0-.174-.148-.354-.444-.538.139.05.21.119.21.206 0 .053-.035.126-.106.224-.069.098-.104.173-.104.224 0 .089.069.175.21.259m.549 1.701c.139-.09.208-.188.208-.292 0-.471-.13-.741-.392-.807l-.025.082v.443c0 .264.068.454.209.574m.208.625.054-.008c.035.013.148-.039.34-.154l-.236-.15c-.087.101-.158.179-.21.24l.052.072zm.551 5.259c.139-.055.21-.151.21-.291a.35.35 0 0 0-.21-.337l-.393.319.393.309zm-.157-7.437.157.004v-.157l-.157.153zm.523.947c.017-.038.044-.085.078-.143 0-.227-.121-.34-.366-.34-.139-.016-.218.039-.235.164.087.111.235.211.445.304l.078.015zm-.156-3.643.287-.014v-.21l-.287-.012v.236zm.549 4.582.156.003c.141-.09.21-.171.21-.24 0-.069-.175-.202-.523-.396-.158.058-.236.138-.236.242v.211c0 .121.131.181.393.18m-.157 4.182h.183c.157-.005.271-.064.34-.179a2.976 2.976 0 0 1-.418-.227 1.074 1.074 0 0 1-.132-.061l.027-.004c-.158.006-.236.061-.236.165 0 .071.078.172.236.306m.707-3.738v-.158h-.184l.184.158zm.367-.917c.173-.06.26-.168.26-.324 0-.157-.087-.259-.26-.305l-.158.154v.105c0 .174.053.299.158.37m.392 4.394.314.007v-.235l-.314-.008v.236zm.366-5.471c.087-.083.166-.164.237-.243v-.079l-.393.135.156.187zm.393-.763v-.156l-.156-.005.156.161zm0 1.832c.087-.082.158-.153.208-.213v-.104l-.364.183.156.134zm1.884.098.288-.016v-.211l-.288-.01v.237zm.759-2.858a.438.438 0 0 0 .234-.4.408.408 0 0 0-.234-.385l-.182.158v.339c0 .14.06.235.182.288M15.869 46.184c-.435-.096-1.169-.139-2.198-.131-.943-.005-1.649-.078-2.12-.22a1.76 1.76 0 0 1-.419.112c-.418.061-1.012.007-1.78-.162-.82-.199-1.413-.287-1.78-.269l-.522-.449c-1.012-.134-1.921-.685-2.723-1.652-.733-.89-1.099-1.779-1.099-2.669v-.183c-.263-.277-.393-.59-.393-.938 0-.036.035-.372.105-1.01a2.973 2.973 0 0 0-.105-1.006l.419-.322c-.314-.372-.471-.857-.471-1.451 0-.889.034-1.479.104-1.768.175-.653.602-1.072 1.284-1.256.016.066.297.087.836.064.332-.013.664-.028.994-.04 1.519.08 3.997.125 7.434.141 4.869.034 10.164.019 15.887-.052.716.211 1.057.688 1.022 1.425-.017.422-.009 1.048.025 1.88.036.989.053 1.669.053 2.035 0 1.814-.261 3.221-.785 4.221-.698 1.356-1.945 2.233-3.743 2.631-.244.051-.598.176-1.059.373-.463.198-.87.321-1.219.37a3.46 3.46 0 0 1-.601.034c-1.257.006-3.639.094-7.146.266v.026zm-10.94-7.045c.122-.052.183-.156.183-.313 0-.21-.113-.317-.34-.318l-.052.006v.394c0 .122.07.2.209.231m0 1.78.261-.011v-.21l-.261-.014v.235zm1.518-5.034c.122-.121.183-.199.183-.235l-.025-.074-.366.183.208.126zm.55 1.571.053-.008a4.08 4.08 0 0 0 .314-.15l-.367-.288c-.14.073-.209.145-.209.215.052.062.121.138.209.231m0 1.544c.14-.055.209-.152.209-.292v-.183l-.392.317.183.158zm-.183.943h.183v-.184l-.183.184zm.55-3.429.078.015c.087-.012.184-.093.288-.238.105-.146.183-.222.235-.23l-.393-.153-.208.606zm3.977 4.664v-.156c.279-.198.62-.298 1.021-.305.314.043.793.097 1.439.162.159-.111.254-.167.289-.172.121-.001.349.107.68.32l.367-.286c.192.057.461.071.811.039.507-.036.776-.059.811-.063.541.01.881.17 1.021.481.017-.194.131-.332.342-.415l.757.127.419-.165c.157.066.331.128.524.187.104.003.271-.03.497-.098.227-.049.401-.075.524-.075.139.033.314.078.523.136.156-.041.414-.064.771-.072.358-.008.564.019.616.082a3.39 3.39 0 0 0 1.715-.534c.549-.34.824-.746.824-1.216 0-.786-.68-1.177-2.041-1.175a1.446 1.446 0 0 0-.76.162 2.7 2.7 0 0 0-.969-.175c-.278.004-.701.039-1.268.102-.567.065-1 .091-1.296.081-.157.005-.379-.027-.667-.101-.288-.071-.52-.104-.694-.096-.244 0-.606.025-1.086.077a11.37 11.37 0 0 1-1.086.078c-.124 0-.301-.031-.537-.094-.235-.062-.405-.086-.51-.07-.193-.008-.488.026-.889.1-.403.093-.709.137-.917.13-.716-.001-1.117-.23-1.204-.69-.192.221-.593.374-1.205.46l-.549.079a9.004 9.004 0 0 0-.524.049c-.906.13-1.36.448-1.36.954 0 .262.165.569.497.923.28.257.559.513.837.771.104-.051.219-.085.341-.101.279-.041.61.007.994.145.315.146.629.284.942.414m-3.376.615v-.158l-.208.004.208.154zm.158-4.026c.139-.125.21-.206.21-.241l-.028-.074-.34.179.158.136zm.497 5.109c.173.011.262-.062.262-.22 0-.104-.07-.19-.21-.258l-.367.314c.087.058.192.112.315.164m-.105-7.496.263-.011v-.209l-.263-.014v.234zm.916.524c.158-.059.236-.166.236-.322 0-.139-.078-.233-.236-.28l-.157.153v.184c0 .156.053.244.157.265m.392 1.121c.139-.055.21-.144.21-.266 0-.087-.071-.164-.21-.232-.052.06-.121.131-.209.214a2 2 0 0 0 .209.284m.367 5.705c-.053-.044-.1-.182-.144-.411-.045-.229-.117-.354-.223-.374l-.156.154c.209.284.383.495.523.631m.733-6.647c.279-.006.418-.174.418-.506a.632.632 0 0 0-.157-.422c-.418.234-.628.439-.628.613 0 .069.009.121.027.154.104.107.218.16.34.161m.628 1.166.288-.016v-.208l-.288-.011v.235zm1.047 8.277.052-.008.052-.164c0-.157-.078-.259-.234-.306-.123.139-.184.227-.184.262v.052c.069.06.174.115.314.164m1.203-9.907.211-.136-.393-.18-.026.082c.052.063.122.14.208.234m.682 6.523.079-.038.025-.056c0-.156-.114-.237-.34-.238l-.079.01v.158c.087.056.192.112.315.164m.444 3.941.288-.015v-.21l-.288-.01v.235zm.21-9.609.288.01v-.235l-.288-.011v.236zm1.622 5.212.078-.013v-.078a5.957 5.957 0 0 0-.208-.232l-.183.131c.104.072.209.136.313.192m-.13-8.148.313.007v-.235l-.313-.008v.236zm.576 4.183.288.012v-.235l-.288-.012v.235zm.917-2.984.025-.004a2.16 2.16 0 0 0-.367-.81.337.337 0 0 0-.183.313v.184c.087.11.261.214.525.317m.783 2.767V37.4a1.334 1.334 0 0 1-.182-.211l-.183.157.287.144.078.014zm.393 5.859c.123-.122.183-.2.183-.236 0-.14-.095-.213-.287-.219-.122 0-.218.055-.289.172l.393.283zm.916-6.858.314-.019v-.235l-.314.019v.235zm.603-.871c.104-.068.156-.128.156-.179 0-.071-.056-.172-.169-.304-.115-.133-.18-.223-.197-.272-.139.107-.21.177-.21.213v.078c0 .086.14.243.42.464m0 2.042c.121-.106.182-.254.182-.446 0-.228-.086-.346-.26-.355l-.052.008c-.019.001-.045.006-.08.01v.473c0 .12.069.225.21.31m.731 5.888c-.051-.044-.122-.201-.208-.468-.089-.266-.21-.423-.367-.47l-.156.126.731.812zm.316-1.694.104-.04-.052-.046c0-.017.069-.098.21-.239l-.394-.153c-.139.141-.21.221-.21.239 0 .035.049.085.145.149.095.065.16.095.197.09m.262-5.612c.139-.125.209-.205.209-.24v-.052l-.367.158.158.134zm.758.493.367-.289-.21-.179-.314.307.157.161zm.367-1.728v-.131l-.21.005.21.126zm.393 2.352c.139-.056.208-.134.208-.24 0-.104-.069-.18-.208-.23l-.21.159v.053c0 .035.069.121.21.258m-.21 5.58.21-.004v-.184l-.21.188zm1.727-1.243c.14-.073.211-.179.211-.319 0-.139-.071-.242-.211-.309l-.209.16v.184c0 .121.07.217.209.284m0-3.743c.297-.164.445-.361.445-.588l-.052-.175c-.297.147-.444.325-.444.535 0 .034.016.111.051.228m.76.939v-.184c0-.14-.07-.225-.21-.258l-.157.128.367.314zm0 1.256v-.053c0-.034-.07-.12-.21-.258l-.157.18.289.115.078.016zm0-4.109.26.014v-.235l-.26.011v.21zm1.492 2.873h.182c0-.243.07-.393.21-.448l-.21-.179c-.122.052-.182.148-.182.287v.34zm1.151.176h.183v-.184l-.183.184zM16.158 53.01l-.05 7.276c-.054 4.693-.156 7.276-.3 7.747l.152.157c-.422 2.774-1.066 4.695-1.932 5.757-1 1.24-2.599 1.86-4.798 1.86-1.901 0-3.307-.446-4.213-1.336-.789-.784-1.299-2.031-1.534-3.742-.127-.925-.195-2.199-.209-3.821-.042-3.107-.065-7.739-.072-13.898.014-1.047-.076-1.902-.272-2.566l.473-1.701a3.129 3.129 0 0 1 1.762-.524c.436 0 .924.061 1.464.184l.318-.158c.164.054.408.106.729.158.307.332.458.681.457 1.047-.006.209-.064.365-.171.471.045.21.061 1.815.045 4.815-.017 3.001-.065 4.659-.143 4.974.083.227.112.916.086 2.066-.025 1.153-.068 1.886-.131 2.2.055.14.09.271.107.393.024.175.008.414-.047.719-.053.306-.067.545-.044.72.016.122.051.245.102.366l-.145.471.155.943-.171.471c.168.592.305 1.012.408 1.256.204.472.464.778.78.916a.271.271 0 0 1 .126-.026c.122 0 .328.096.616.288.289.193.46.297.514.314l.42-.576-.468-.158c.262-.26.52-.531.78-.811.11-.208.171-.722.18-1.544l-.164-.628c.037-.104.047-.681.025-1.726-.019-.646.231-.987.751-1.021-.327-.087-.551-.577-.672-1.466-.06-.437-.073-1.859-.035-4.267.021-.611.03-1.561.027-2.853l.164-.524-.153-.365.028-.55.295-.341-.29-.392.182-4.789a3.99 3.99 0 0 1 2.191-.629 8.61 8.61 0 0 1 2.51.366c.131 1.223.188 2.714.167 4.477M4.183 62.458l.004-.158h-.131l.127.158zm.605-6.098-.01-.262h-.236l.009.262h.237zm.753 7.983c-.072-.141-.196-.21-.37-.21h-.523c.096.069.199.147.307.236.107.086.213.13.319.13.087 0 .176-.052.267-.156m-.544-3.403c-.011-.07-.068-.166-.172-.289l-.136.158c.107.139.177.209.212.209a.317.317 0 0 0 .096-.078m.346 6.359-.133-.209-.155.209.156.184.132-.184zm.194 3.325-.013-.289h-.21l-.013.289h.236zm.454-5.288-.011-.078-.057-.026c-.018 0-.104.071-.258.21l.156.182a1.15 1.15 0 0 0 .17-.288m0-8.217.016-.262h-.236l-.017.262h.237zm.193 3.324v-.183h-.312l.312.183zm.242 7.119-.01-.079h-.052c-.176 0-.266.105-.271.314l.005.053h.132c.06-.07.126-.166.196-.288m.176 4.343-.013-.286h-.21l-.013.286h.236zm.52 1.31-.157-.183-.157.183.156.183.158-.183zm-.074-1.492.016-.262H6.83l.009.262h.209zm.579-18.138-.757-.549.598.732.159-.183zm.078 7.066-.632.551h.184l.448-.551zm-.442-1.883.004-.158h-.156l.152.158zm.429 4.083c-.142-.141-.23-.21-.266-.21-.156 0-.229.104-.217.314-.004.106.044.2.144.288l.339-.392zm-.125 4.632-.013-.289h-.236l.013.289h.236zm1.241 3.324c.002-.105-.049-.218-.153-.339l-.161.156c.099.087.179.156.238.21l.076-.027zm1.35 2.408c-.072-.139-.159-.209-.264-.209h-.079a.73.73 0 0 0-.127.026l.285.366.185-.183zm.761-.549c-.141-.141-.229-.211-.264-.211l-.048.027.129.366.183-.182zm1.062-3.141c-.052-.14-.15-.21-.289-.21-.158 0-.253.07-.287.21l.131.183h.156c.141 0 .237-.06.289-.183m-.333-1.675-.011-.262h-.208l-.016.262h.235zm.2-11.726c.01-.052-.039-.157-.148-.313l-.158.182c.121.122.199.183.234.183h.053c.014-.018.022-.035.019-.052m.052 7.642.026-.182c-.008-.193-.068-.305-.177-.341l-.135.341.208.182h.078zm-.042 9.449.014-.287h-.209l-.013.287h.208zm1.373-20.363c-.051-.122-.12-.183-.208-.183-.122 0-.209.061-.262.183l.181.184c.053 0 .149-.061.289-.184m.01 12.877.013-.105h-.079c-.017 0-.096.063-.237.184l.156.183a1.68 1.68 0 0 0 .147-.262m.378-5.653-.157-.183-.157.183.156.184.158-.184zm-.005 6.649-.013-.288h-.21l-.013.288h.236zm.644 2.983.001-.183c-.367 0-.569-.07-.604-.21l-.129.21c.054.14.142.208.265.208h.392c.014-.016.04-.025.075-.025m-.359-1.858-.009-.262h-.21l-.017.262h.236zm1.332-11.098.013-.288h-.235l-.012.288h.234zm15.674-.418a436.013 436.013 0 0 0-.609 4.16c-.27 1.344-.977 2.488-2.123 3.43-.545.471-1.198.731-1.958.785-1.086.104-1.68.165-1.781.184-.617.208-1.138.731-1.566 1.57l.365 8.008c.002.14-.123.376-.375.708-.251.331-.44.548-.565.653-.22-.087-.532-.13-.933-.13-.14 0-.379.008-.717.025-.337.018-.593.026-.768.026-1.327 0-1.984-.47-1.972-1.413.039-2.251.104-5.609.19-10.076l.186.027c.245-.123.488-.323.729-.603l.012-.104-.171-.288-.731.208-.022-2.459c.004-.349.067-1.109.186-2.277-.085-.105-.127-.359-.131-.76a221.24 221.24 0 0 0-.073-8.558c-.017-.385.267-.786.856-1.205.768 0 2.015.062 3.742.184 1.656.122 2.887.183 3.69.183.47 0 .896.109 1.275.327.379.219.673.336.885.353 1.138 1.047 1.863 2.706 2.174 4.974.092.68.145 1.387.16 2.119l.045-.051zm-11.083 4.501c-.029-.07-.094-.106-.198-.106-.158 0-.352.115-.582.342.121.122.199.183.234.183.106 0 .287-.14.546-.419m.382 9.867c-.054-.017-.148-.086-.278-.209-.13-.121-.229-.183-.3-.183-.07 0-.147.069-.233.208.053 0 .149.062.288.184.138.123.234.183.287.183.052 0 .13-.06.236-.183m-.601-2.669.001-.183h-.183l.182.183zm.749-12.302c-.072-.138-.16-.209-.265-.209-.087 0-.156.071-.205.209l.158.209c.053 0 .157-.068.312-.209m.258 3.795c-.054-.139-.142-.209-.264-.209h-.209l.315.393.158-.184zm.131 1.91h-.131l-.181.394.312-.394zm.123 5.105-.185-.21-.128.21.129.184.184-.184zm.218-7.773-.312-.368-.136.158.315.393.133-.183zm.018 5.863.014-.288h-.238l.015.288h.209zm1.024-3.796c-.138-.122-.322-.184-.549-.184-.261 0-.434.14-.518.42l.127.156c.07.018.125.027.16.027a.513.513 0 0 0 .217-.04c.057-.026.245-.153.563-.379m-.413-2.827c-.054-.139-.134-.209-.238-.209-.105 0-.183.07-.233.209.106.139.177.21.212.21.017 0 .103-.071.259-.21m.116 4.869c-.006-.052-.065-.167-.177-.34a.429.429 0 0 0-.167.314c-.002.104.053.191.168.26a2.77 2.77 0 0 0 .176-.234m.67-6.386c-.442-.297-.697-.445-.766-.445-.037 0-.094.026-.174.078.253.314.502.472.747.472.085 0 .15-.036.193-.105m-.402 7.956c-.141-.14-.221-.21-.237-.21-.14 0-.215.097-.222.288.003.157.05.254.144.288l.315-.366zm.305-12.301c-.055-.139-.159-.21-.318-.21-.208 0-.312.071-.31.21l.007.051a.278.278 0 0 0-.009.132h.367c.139 0 .227-.062.263-.183m.117 10.025-.014-.289h-.21l-.013.289h.237zm3.667-2.461c-.216-.053-.48-.184-.787-.393.584-1.099.748-2.565.498-4.396-.094-.681-.278-1.135-.552-1.362-.155-.104-.461-.206-.92-.301-.458-.095-.827-.275-1.106-.537l-.164.34h.315c.099.088.152.219.158.394.003.401-.119.602-.362.602-.07 0-.192-.062-.365-.183-.175-.124-.299-.192-.369-.211.021.158.095.319.223.484.126.167.254.32.376.459l.022.158c-.001.243-.113.636-.336 1.176.205.227.299.533.283.917-.004.104-.029.366-.076.786-.027.313-.026.575.003.785.066.488.247.885.542 1.19.295.306.652.458 1.07.458a.892.892 0 0 0-.162.34l.007.052c.245 0 .393-.06.447-.182l-.443-.366c.113-.316.257-.473.432-.473.069 0 .224.114.465.341s.397.34.465.34c.141 0 .252-.139.336-.418m-3.323-.184-.009-.261h-.236l.009.261h.236zm-.009 7.199.001-.184h-.156l.155.184zm.109-5.131.017-.262h-.237l.01.262h.21zm.403 2.172-.011-.078h-.132l-.002.366a.96.96 0 0 0 .145-.288m.492-3.087-.16-.028c-.158 0-.262.062-.316.184l.163.236.313-.392zm.297 1.203c.007-.193-.058-.288-.197-.288-.193 0-.291.115-.293.34l.005.052c.142.141.229.21.266.21.016 0 .058-.043.125-.132.067-.086.098-.147.094-.182m1.19 1.806a.363.363 0 0 0-.344-.21h-.498l-.049.026c-.117.037-.174.123-.172.262-.01.193.047.288.169.288h.368a.514.514 0 0 0 .526-.366m2.314-10.81c-.322-.192-.648-.384-.969-.574-.395-.211-.742-.325-1.041-.341-.086.139-.172.208-.26.208-.07 0-.167-.039-.292-.117-.124-.078-.211-.118-.263-.118-.089 0-.174.071-.26.21l.604.392a.886.886 0 0 1 .622-.234c.191 0 .461.099.813.299.35.201.622.302.812.302.141 0 .218-.009.234-.027m-1.205 2.853.016-.262h-.237l-.016.262h.237zm1.275 4.345-.625.603h.157l.468-.603zm-.283-2.068-.161-.209-.155.393.03.026c.034 0 .13-.071.286-.21m.174 4.345.016-.261H27.4l.01.261h.208zm.066-5.26.01-.315h-.237l.018.315h.209zm1.328-1.388c.008-.07-.043-.183-.151-.34-.112.07-.172.157-.173.262a.343.343 0 0 0 .173.313.813.813 0 0 1 .151-.235m7.969 16.313v1.352l-1.621 1.023v.012h1.621v1.086h-4.212v-1.622c0-.826.397-1.452 1.295-1.452.581 0 1.085.321 1.191.913l1.726-1.312zm-2.324 2.387V74.3c0-.354-.066-.753-.525-.753-.458 0-.523.399-.523.753v.105h1.048zm-.961-11.13h.704v-1.224h.927v1.224h.727v-1.291h.927v2.375h-4.212v-2.375h.927zm.485-12.311a1.183 1.183 0 0 0-.462.952c0 .665.514 1.114 1.167 1.114.665 0 1.146-.454 1.146-1.129a1.25 1.25 0 0 0-.447-.937h1.312c.111.361.196.621.196.958 0 .583-.225 1.136-.621 1.568-.418.46-.965.669-1.59.669a2.214 2.214 0 0 1-1.543-.613 2.257 2.257 0 0 1-.681-1.591c0-.347.078-.669.21-.991h1.313zm.615-12.442c1.363 0 2.324.969 2.324 2.308 0 1.341-.961 2.31-2.324 2.31-1.272 0-2.167-1.108-2.167-2.31 0-1.2.895-2.308 2.167-2.308m.005 3.488c.727 0 1.258-.531 1.258-1.18 0-.647-.531-1.179-1.258-1.179-.581 0-1.111.532-1.111 1.179 0 .649.53 1.18 1.111 1.18m2.18-14.83v1.352l-1.621 1.025v.01h1.621v1.086h-4.212V29.03c0-.825.397-1.451 1.295-1.451.581 0 1.085.321 1.191.914l1.726-1.313zm-2.324 2.387v-.105c0-.354-.066-.753-.525-.753-.458 0-.523.399-.523.753v.105h1.048zm-1.888-10.044v-1.539c0-1.164.922-2.122 2.107-2.122 1.183 0 2.105.963 2.105 2.122v1.539h-4.212zm3.285-1.086v-.243c0-.649-.358-1.202-1.178-1.202-.756 0-1.18.492-1.18 1.19v.255h2.358zM33.853 5.7c-.167.199-.28.455-.28.72 0 .199.117.465.352.465.246 0 .341-.293.402-.482l.084-.276c.174-.582.471-1.031 1.15-1.031.42 0 .85.1 1.135.432.28.327.397.764.397 1.185 0 .526-.18 1.042-.481 1.467l-.883-.464c.24-.271.436-.593.436-.964 0-.255-.129-.526-.424-.526-.308 0-.414.426-.48.659-.196.681-.375 1.13-1.19 1.13-.856 0-1.413-.604-1.413-1.44 0-.42.132-.936.346-1.307l.849.432z"/>
</svg>
