<?xml version="1.0" encoding="utf-8"?>
<!-- Generator: Adobe Illustrator 27.9.0, SVG Export Plug-In . SVG Version: 6.00 Build 0)  -->
<svg version="1.1" id="Layer_1" xmlns="http://www.w3.org/2000/svg" xmlns:xlink="http://www.w3.org/1999/xlink" x="0px" y="0px"
	 width="40px" height="80px" viewBox="0 0 40 80" style="enable-background:new 0 0 40 80;" xml:space="preserve" fill="currentColor">
	<path d="M4.876,15.957v-0.026c-1.395-0.113-2.094-0.519-2.094-1.218c0-0.821,0.075-2.064,0.223-3.735
	c0.148-1.671,0.223-2.906,0.223-3.71c0-0.226-0.052-0.547-0.157-0.958C2.965,5.897,2.913,5.577,2.913,5.35
	c0-0.802,0.427-1.308,1.284-1.518l0.757,0.18l0.132-0.045L5.06,3.866c2.844,0.098,7.093,0.214,12.746,0.347
	c2.548-0.086,6.387-0.174,11.516-0.262L30.5,5.064l-0.261,7.732c0,0.261,0.018,0.587,0.051,0.975
	c0.037,0.387,0.054,0.642,0.054,0.764c0,0.68-0.429,1.082-1.283,1.205c-0.315,0.044-0.697,0.063-1.152,0.058
	c-0.785,0.009-1.71-0.12-2.775-0.385l-0.522-0.737c0-0.245-0.009-0.732-0.027-1.463c-0.018-0.643-0.018-1.149,0-1.518
	c0.035-0.564,0.122-1.029,0.263-1.398c-0.123-0.28-0.367-0.523-0.734-0.733c-0.367-0.21-0.594-0.378-0.68-0.504
	c-0.21,0.047-0.498,0.071-0.865,0.071c-0.436-0.024-0.732-0.025-0.889-0.003c-0.123,0.017-0.227,0.042-0.314,0.071
	c-0.123-0.244-0.375-0.609-0.759-1.096l-0.419,0.585l0.209,0.65c-0.122-0.071-0.365,0.016-0.733,0.262L19.639,14
	c-0.333,0.397-0.725,0.602-1.179,0.615l-0.524-0.162c-0.436,0.063-1.08,0.12-1.936,0.174c-0.699,0.012-1.257-0.135-1.676-0.441
	c-0.052-0.848-0.104-1.687-0.156-2.516c-0.104-1.434-0.208-2.178-0.314-2.232l0.262-0.64l-0.523-0.265L13.199,8.85l0.21,0.312v0.156
	c-0.297-0.098-0.707-0.144-1.231-0.138l-0.653-0.01l0.026-0.162l-0.419-0.462c-0.053,0.023-0.167,0.135-0.34,0.335
	c-0.175,0.199-0.297,0.305-0.366,0.314L10.19,9.15L9.614,8.684C9.282,9.131,8.856,9.499,8.332,9.783
	c-0.157,0.354-0.236,0.785-0.236,1.29c0,0.332,0.049,0.818,0.144,1.458c0.096,0.641,0.144,1.119,0.144,1.433
	c0,0.261-0.026,0.509-0.079,0.745l0.209,0.257c-0.035,0.267-0.192,0.494-0.471,0.683c-0.279,0.187-0.575,0.287-0.889,0.296
	C5.688,15.928,4.928,15.932,4.876,15.957 M4.117,8.345c0.14-0.142,0.21-0.23,0.21-0.265V8.027L3.96,8.185L4.117,8.345z M5.636,7.055
	l0.287-0.016V6.83L5.636,6.819V7.055z M6.264,7.436c0.069,0.007,0.183-0.044,0.34-0.153L6.395,7.129
	C6.272,7.233,6.211,7.322,6.211,7.391L6.264,7.436z M6.395,9.46c0.139-0.056,0.209-0.162,0.209-0.319V8.959L6.239,9.272L6.395,9.46z
	 M6.395,5.35l0.287,0.011V5.099L6.395,5.113V5.35z M7.154,11.234l0.288,0.011v-0.262l-0.288,0.016V11.234z M7.546,10.08l0.367-0.472
	L7.546,9.451c0,0.07-0.034,0.149-0.104,0.237C7.371,9.777,7.337,9.839,7.337,9.874C7.337,9.96,7.407,10.03,7.546,10.08 M8.305,8.662
	h0.184V8.53L8.305,8.662z M10.007,6.742l0.261,0.016V6.522l-0.261,0.011V6.742z M10.032,7.733c0.158,0.013,0.271-0.134,0.342-0.441
	l-0.053,0.007c-0.21-0.003-0.314,0.106-0.314,0.334v0.104L10.032,7.733z M11.447,5.908c0.173,0.012,0.26-0.081,0.26-0.274
	c0-0.226-0.13-0.398-0.392-0.518c-0.121,0.07-0.183,0.165-0.183,0.289v0.339C11.219,5.801,11.324,5.856,11.447,5.908 M13.199,7.149
	l0.394-0.476c-0.036-0.099-0.123-0.156-0.262-0.171c-0.193,0.01-0.288,0.067-0.288,0.171V6.91
	C13.043,7.014,13.095,7.095,13.199,7.149 M15.111,8.995l0.208-0.134l-0.392-0.152l-0.026,0.055
	C14.901,8.781,14.97,8.858,15.111,8.995 M15.111,10.095l0.208-0.161l-0.208-0.128l-0.184,0.132L15.111,10.095z M15.868,5.616V5.431
	l-0.364-0.13L15.868,5.616z M15.504,6.453l0.26,0.014V6.232l-0.26,0.012V6.453z M16.026,8.549l0.236-0.006
	c0.122-0.122,0.184-0.201,0.184-0.237l-0.028-0.047L16.026,8.549z M16.418,7.317c0.28-0.269,0.419-0.522,0.419-0.768
	c0-0.051-0.018-0.154-0.052-0.305c-0.017,0.071-0.104,0.201-0.261,0.39c-0.158,0.188-0.236,0.333-0.236,0.439
	C16.288,7.16,16.332,7.241,16.418,7.317 M17.021,10.241l0.157,0.003v-0.132L17.021,10.241z M17.178,11.342l0.209-0.161l-0.209-0.152
	l-0.157,0.152L17.178,11.342z M18.329,8.404c0.017-0.038,0.027-0.108,0.027-0.214c0-0.139-0.14-0.434-0.42-0.881l-0.392,0.318
	c0.106,0.158,0.214,0.326,0.327,0.502C17.985,8.305,18.137,8.397,18.329,8.404 M19.089,6.698l0.209-0.134l-0.602-0.308L19.089,6.698
	z M19.089,7.955l0.209-0.188l-0.209-0.126l-0.184,0.131L19.089,7.955z M19.586,7.177l0.053,0.018l0.025-0.082
	c0-0.052-0.069-0.13-0.21-0.232l-0.156,0.128C19.421,7.13,19.516,7.186,19.586,7.177 M20.607,7.789l0.157-0.154l-0.157-0.16
	l-0.21,0.16L20.607,7.789z M20.973,6.9l0.078-0.011c0.053-0.008,0.159-0.067,0.315-0.176L21.157,6.56
	c-0.14,0.142-0.21,0.229-0.21,0.264L20.973,6.9z M22.884,7.725l0.262,0.016V7.478L22.884,7.49V7.725z M23.25,8.589l0.184-0.184
	L23.04,8.279v0.052C23.04,8.366,23.111,8.452,23.25,8.589 M23.801,7.49l0.182-0.158v-0.13L23.801,7.49z M25.528,8.733
	c0.122-0.016,0.183-0.095,0.183-0.234c0-0.106-0.061-0.176-0.183-0.21c-0.157,0.074-0.236,0.147-0.236,0.217
	C25.344,8.568,25.422,8.643,25.528,8.733 M25.528,5.253l0.261,0.014V5.033l-0.261-0.016V5.253z M25.528,11.22h0.183v-0.157
	L25.528,11.22z M26.077,9.596l0.289-0.014V9.374l-0.289-0.013V9.596z M26.836,8.965l0.288,0.01V8.741l-0.288,0.015V8.965z
	 M27.595,12.547l0.288-0.016v-0.209l-0.288-0.011V12.547z"/>
	<path d="M4.72,30.924l-0.026-0.048c-0.803-0.078-1.354-0.234-1.65-0.471l-0.209-0.414c0.122-0.263,0.183-0.56,0.183-0.891
	c0-0.208-0.029-0.518-0.092-0.928c-0.06-0.41-0.091-0.72-0.091-0.93c0-0.366,0.122-0.75,0.367-1.151
	c0.854-0.454,2.521-0.921,4.998-1.397c2.932-0.56,4.738-0.94,5.418-1.142c-0.051,0.879,0.201,1.438,0.76,1.671
	c0.121-0.088,0.183-0.218,0.183-0.393v-0.55l-0.315-0.242c0.018-0.09,0.065-0.202,0.145-0.335c0.078-0.134,0.117-0.236,0.117-0.305
	l-0.34-0.318l0.21-0.187c-0.123-0.243-0.463-0.44-1.021-0.587c-0.663-0.202-1.082-0.359-1.257-0.474l-0.627,0.299
	c-0.664-0.097-1.047-0.137-1.152-0.122c-0.227,0.032-0.403,0.126-0.524,0.284L7.154,22.28c-0.89,0.004-2.19-0.063-3.9-0.2
	c-0.314-0.41-0.472-0.929-0.472-1.557c0-0.978,0.027-1.583,0.08-1.817c0.139-0.614,0.496-0.961,1.072-1.043
	c0.367-0.052,0.82-0.013,1.362,0.12l0.236-0.244c2.18,0.141,5.381,0.284,9.605,0.43c2.059-0.033,5.147-0.074,9.266-0.124l0.26,0.147
	l4.634-0.272c0.557-0.026,0.899,0.508,1.02,1.608c0.018,0.799,0.035,1.6,0.051,2.4c0,0.157,0.011,0.278,0.027,0.363
	c-0.487,0.594-1.692,1.159-3.613,1.696c-0.54,0.165-1.969,0.501-4.291,1.007l0.419-0.48c0.017-0.054-0.122-0.199-0.419-0.437
	c-0.542,0.357-1.248,0.921-2.12,1.692l-0.157,0.65v0.445c0.228,0.229,0.48,0.377,0.759,0.441l0.237-0.295
	c0-0.158-0.089-0.258-0.263-0.304c0.995,0.102,2.216,0.128,3.665,0.078c2.076-0.088,3.297-0.132,3.663-0.132
	c0.768,0.011,1.249,0.048,1.44,0.108c0.315,0.112,0.559,0.407,0.733,0.889c-0.087,0.221-0.131,0.516-0.131,0.883
	c0,0.104,0.01,0.26,0.027,0.466v0.499c0,1.064-0.47,1.638-1.414,1.72c-0.087-0.109-0.244-0.148-0.47-0.116
	c-0.141,0.003-0.245-0.035-0.315-0.112c-4.467-0.077-9.78-0.126-15.941-0.151C11.176,30.627,8.68,30.725,4.72,30.924 M6.053,27.67
	l0.186-0.182l-0.186-0.13l-0.208,0.134L6.053,27.67z M8.253,28.142l0.052-0.008l0.027-0.16c0-0.14-0.07-0.236-0.21-0.285
	c-0.087,0.083-0.157,0.153-0.209,0.213C7.965,28.069,8.078,28.148,8.253,28.142 M8.305,19l0.209-0.004v-0.445L8.305,19z
	 M8.882,26.664l0.286,0.012V26.44l-0.286,0.015V26.664z M9.535,25.681l0.132-0.018v-0.054c-0.035-0.046-0.114-0.123-0.236-0.228
	l-0.157,0.128C9.379,25.581,9.465,25.639,9.535,25.681 M9.509,27.858c0.034-0.006,0.14-0.065,0.314-0.177l-0.156-0.16
	c-0.158,0.145-0.236,0.225-0.236,0.243v0.078C9.448,27.84,9.474,27.845,9.509,27.858 M10.19,20.431
	c0.158-0.074,0.236-0.164,0.236-0.268c0-0.089-0.078-0.157-0.236-0.204c-0.035,0.041-0.096,0.102-0.183,0.183
	C10.007,20.195,10.068,20.292,10.19,20.431 M10.19,26.608c0.158-0.059,0.236-0.138,0.236-0.242c0-0.106-0.078-0.182-0.236-0.229
	c-0.035,0.04-0.096,0.101-0.183,0.183C10.007,26.373,10.068,26.469,10.19,26.608 M10.949,25.374
	c0.157-0.058,0.235-0.138,0.235-0.243c0-0.175-0.131-0.261-0.392-0.257l-0.132-0.008c-0.017,0.003-0.043,0.015-0.078,0.036
	L10.949,25.374z M11.447,29.098c0.017-0.003,0.052-0.008,0.104-0.015V29.03c0-0.175-0.104-0.264-0.314-0.268l-0.053,0.006v0.158
	C11.254,28.986,11.341,29.043,11.447,29.098 M11.707,28.145c0.263-0.178,0.393-0.303,0.393-0.37c0-0.175-0.088-0.259-0.261-0.252
	c-0.21-0.005-0.314,0.098-0.314,0.307C11.525,28.005,11.585,28.109,11.707,28.145 M12.1,26.936c0.227-0.242,0.342-0.536,0.342-0.887
	c0-0.313-0.115-0.594-0.342-0.84c-0.261,0.141-0.393,0.3-0.393,0.475c0,0.139,0.067,0.349,0.198,0.627
	C12.035,26.587,12.1,26.797,12.1,26.936 M12.468,24.764c0-0.088,0.082-0.204,0.247-0.35c0.167-0.147,0.25-0.236,0.25-0.272
	c0-0.069-0.037-0.116-0.105-0.141l-0.576,0.58L12.468,24.764z M12.572,27.549c0.017-0.002,0.112-0.059,0.288-0.173l-0.392-0.282
	l-0.184,0.156C12.284,27.443,12.379,27.542,12.572,27.549 M13.043,21.959h0.182c0.088-0.064,0.167-0.137,0.236-0.217l-0.052-0.096
	L13.043,21.959z M13.618,26.457c0.123-0.158,0.183-0.297,0.183-0.419c0-0.435-0.253-0.714-0.758-0.833
	c0.121,0.105,0.231,0.32,0.327,0.647C13.465,26.178,13.548,26.38,13.618,26.457 M13.409,20.755l0.603-0.95
	c-0.49,0.087-0.734,0.306-0.734,0.654C13.278,20.582,13.322,20.681,13.409,20.755 M13.618,28.76c0.14-0.019,0.21-0.091,0.21-0.213
	c0-0.123-0.07-0.19-0.21-0.205l-0.209,0.135v0.052C13.409,28.545,13.479,28.624,13.618,28.76 M14.012,26.924v-0.157l-0.211,0.005
	L14.012,26.924z M15.032,26.333c0.209,0.004,0.314-0.081,0.314-0.253c0-0.036-0.131-0.118-0.393-0.246
	c-0.261-0.129-0.392-0.227-0.392-0.296l-0.183,0.156c0.087,0.214,0.261,0.433,0.523,0.658L15.032,26.333z M15.739,22.018
	c0.104,0.003,0.218-0.014,0.339-0.048c-0.278-0.031-0.519-0.222-0.72-0.578c-0.201-0.354-0.396-0.572-0.588-0.648l-0.366,0.287
	c0.226,0.387,0.384,0.616,0.471,0.692C15.085,21.92,15.371,22.018,15.739,22.018 M14.77,28.334c0.401-0.023,0.601-0.27,0.601-0.742
	c0-0.453-0.156-0.684-0.47-0.691c-0.262,0.004-0.393,0.249-0.393,0.737C14.508,27.917,14.595,28.15,14.77,28.334 M14.77,23.517
	c0.105-0.015,0.157-0.091,0.157-0.232c0-0.104-0.052-0.174-0.157-0.212l-0.209,0.135v0.051C14.561,23.295,14.63,23.381,14.77,23.517
	 M15.215,25.391c0.192,0.007,0.289-0.059,0.289-0.198c0-0.192-0.115-0.289-0.341-0.292l-0.026,0.004
	c-0.141,0.142-0.21,0.229-0.21,0.265v0.053C15.014,25.28,15.111,25.336,15.215,25.391 M15.79,24.627
	c0.193-0.01,0.288-0.11,0.288-0.301c0-0.176-0.13-0.34-0.392-0.495c-0.122,0.035-0.182,0.114-0.182,0.237v0.13v0.21
	c0,0.016,0.008,0.033,0.025,0.048C15.598,24.516,15.686,24.573,15.79,24.627 M15.686,26.685l0.288,0.01v-0.209l-0.288-0.011V26.685z
	 M16.078,20.137l0.184-0.157l-0.394-0.337v0.158C15.868,19.975,15.939,20.087,16.078,20.137 M16.078,21.525
	c0.14-0.056,0.21-0.136,0.21-0.24V21.18c0-0.017-0.008-0.06-0.026-0.127l-0.394,0.292L16.078,21.525z M15.922,22.934
	c0.104-0.05,0.217-0.11,0.34-0.179l-0.184-0.157c-0.139,0.142-0.21,0.221-0.21,0.239v0.079L15.922,22.934z M16.078,27.728
	l0.184-0.183l-0.394-0.286v0.107C15.868,27.539,15.939,27.66,16.078,27.728 M17.021,25.708c0.104-0.084,0.157-0.17,0.157-0.257
	c0-0.071-0.148-0.185-0.445-0.343c-0.297-0.157-0.453-0.271-0.471-0.338l-0.184,0.157L17.021,25.708z M16.262,30.213l0.184-0.183
	l-0.368-0.156v0.052C16.078,29.961,16.139,30.056,16.262,30.213 M16.629,20.766l0.208-0.162l-0.391-0.31l-0.184,0.158L16.629,20.766
	z M16.733,27.111l0.104-0.016c0.14-0.089,0.21-0.24,0.21-0.448c0-0.209-0.122-0.315-0.366-0.314
	c-0.157-0.013-0.235,0.059-0.235,0.216v0.394C16.532,26.999,16.629,27.056,16.733,27.111 M17.78,24.919
	c0.227-0.19,0.341-0.389,0.341-0.599c0-0.279-0.167-0.587-0.497-0.923c-0.263-0.259-0.524-0.527-0.787-0.803
	c-0.139,0.054-0.208,0.169-0.208,0.344v0.157c0.278,0.151,0.496,0.443,0.653,0.875C17.457,24.467,17.624,24.784,17.78,24.919
	 M17.596,22.772h0.368c0.035-0.039,0.052-0.121,0.052-0.242c0-0.036-0.132-0.583-0.392-1.646c-0.245,0.716-0.367,1.134-0.367,1.257
	C17.257,22.404,17.37,22.613,17.596,22.772 M18.356,27.873l0.367-0.472c-0.332-0.109-0.56-0.364-0.681-0.767
	c-0.139-0.45-0.288-0.717-0.446-0.8c-0.035,0.075-0.052,0.165-0.052,0.27C17.544,26.4,17.815,26.991,18.356,27.873 M18.147,20.444
	c0.138-0.056,0.209-0.135,0.209-0.239c0-0.089-0.071-0.166-0.209-0.234c-0.053,0.06-0.122,0.132-0.211,0.215
	C17.936,20.22,18.007,20.306,18.147,20.444 M18.147,30.048v-0.314l-0.183,0.158L18.147,30.048z M18.723,24.181l0.052-0.007
	c0.034-0.004,0.148-0.055,0.34-0.152l-0.759-0.781L18.147,23.4c0.121,0.036,0.24,0.166,0.353,0.395
	C18.614,24.022,18.688,24.151,18.723,24.181 M18.356,25.779l0.287-0.015v-0.209l-0.287-0.012V25.779z M18.801,26.342l0.104-0.014
	l-0.366-0.287v0.129C18.643,26.244,18.731,26.301,18.801,26.342 M18.827,28.827c0.193,0.006,0.288-0.104,0.288-0.329
	c0-0.158-0.069-0.27-0.21-0.338c-0.017,0.02-0.083,0.082-0.195,0.185c-0.115,0.103-0.171,0.19-0.171,0.26v0.053
	C18.626,28.715,18.723,28.772,18.827,28.827 M18.723,21.459l0.288-0.015v-0.208l-0.288-0.011V21.459z M19.848,23.863
	c0.262-0.247,0.393-0.412,0.393-0.501c0-0.192-0.096-0.292-0.289-0.298c-0.156,0.005-0.253,0.062-0.288,0.172
	c-0.087-0.11-0.148-0.302-0.183-0.577c-0.035-0.274-0.095-0.439-0.183-0.496c-0.018,0.071-0.088,0.213-0.209,0.421
	c-0.121,0.211-0.184,0.359-0.184,0.446c0,0.14,0.07,0.261,0.21,0.362l0.339-0.31L19.848,23.863z M19.115,25.539
	c0.122-0.017,0.183-0.087,0.183-0.209c0-0.123-0.061-0.201-0.183-0.236l-0.21,0.134v0.079
	C18.905,25.342,18.975,25.419,19.115,25.539 M19.454,27.741c0.071-0.079,0.141-0.16,0.21-0.24v-0.078l-0.366,0.132L19.454,27.741z
	 M19.848,21.22c0.139-0.019,0.209-0.091,0.209-0.214c0-0.122-0.07-0.199-0.209-0.231l-0.184,0.131v0.053
	C19.664,20.975,19.725,21.064,19.848,21.22 M19.848,25.853l0.209-0.136l-0.209-0.153l-0.184,0.157L19.848,25.853z M19.848,26.874
	l0.313,0.007v-0.235l-0.313,0.018V26.874z M20.607,22.787c0.017-0.054,0.026-0.109,0.026-0.161c0-0.122-0.105-0.431-0.314-0.924
	c-0.018-0.032-0.052-0.089-0.105-0.168l-0.157,0.128c0,0.035,0.043,0.246,0.131,0.635C20.241,22.551,20.379,22.713,20.607,22.787
	 M20.607,24.305l0.366-0.288l-0.366-0.289l-0.393,0.293L20.607,24.305z M20.817,21.082c0.156-0.127,0.234-0.252,0.234-0.375
	c0-0.174-0.148-0.354-0.444-0.538c0.139,0.05,0.21,0.119,0.21,0.206c0,0.053-0.035,0.126-0.106,0.224
	c-0.069,0.098-0.104,0.173-0.104,0.224C20.607,20.912,20.676,20.998,20.817,21.082 M21.366,22.783
	c0.139-0.09,0.208-0.188,0.208-0.292c0-0.471-0.13-0.741-0.392-0.807l-0.025,0.082v0.314v0.129
	C21.157,22.473,21.225,22.663,21.366,22.783 M21.574,23.408l0.054-0.008c0.035,0.013,0.148-0.039,0.34-0.154l-0.236-0.15
	c-0.087,0.101-0.158,0.179-0.21,0.24L21.574,23.408z M22.125,28.667c0.139-0.055,0.21-0.151,0.21-0.291
	c0-0.157-0.071-0.269-0.21-0.337l-0.393,0.319L22.125,28.667z M21.968,21.23l0.157,0.004v-0.157L21.968,21.23z M22.491,22.177
	c0.017-0.038,0.044-0.085,0.078-0.143c0-0.227-0.121-0.34-0.366-0.34c-0.139-0.016-0.218,0.039-0.235,0.164
	c0.087,0.111,0.235,0.211,0.445,0.304L22.491,22.177z M22.335,18.534l0.287-0.014v-0.21l-0.287-0.012V18.534z M22.884,23.116
	l0.156,0.003c0.141-0.09,0.21-0.171,0.21-0.24c0-0.069-0.175-0.202-0.523-0.396c-0.158,0.058-0.236,0.138-0.236,0.242v0.211
	C22.491,23.057,22.622,23.117,22.884,23.116 M22.727,27.298h0.183c0.157-0.005,0.271-0.064,0.34-0.179
	c-0.175-0.08-0.314-0.157-0.418-0.227c-0.036-0.013-0.079-0.033-0.132-0.061l0.027-0.004c-0.158,0.006-0.236,0.061-0.236,0.165
	C22.491,27.063,22.569,27.164,22.727,27.298 M23.434,23.56v-0.158H23.25L23.434,23.56z M23.801,22.643
	c0.173-0.06,0.26-0.168,0.26-0.324c0-0.157-0.087-0.259-0.26-0.305l-0.158,0.154v0.105C23.643,22.447,23.696,22.572,23.801,22.643
	 M24.193,27.037l0.314,0.007v-0.235l-0.314-0.008V27.037z M24.559,21.566c0.087-0.083,0.166-0.164,0.237-0.243v-0.079l-0.393,0.135
	L24.559,21.566z M24.952,20.803v-0.156l-0.156-0.005L24.952,20.803z M24.952,22.635c0.087-0.082,0.158-0.153,0.208-0.213v-0.104
	l-0.364,0.183L24.952,22.635z M26.836,22.733l0.288-0.016v-0.211l-0.288-0.01V22.733z M27.595,19.875
	c0.156-0.092,0.234-0.225,0.234-0.4c0-0.174-0.078-0.303-0.234-0.385l-0.182,0.158v0.339C27.413,19.727,27.473,19.822,27.595,19.875
	"/>
	<path d="M15.869,46.184c-0.435-0.096-1.169-0.139-2.198-0.131c-0.943-0.005-1.649-0.078-2.12-0.22
	c-0.14,0.056-0.279,0.093-0.419,0.112c-0.418,0.061-1.012,0.007-1.78-0.162c-0.82-0.199-1.413-0.287-1.78-0.269L7.05,45.065
	c-1.012-0.134-1.921-0.685-2.723-1.652c-0.733-0.89-1.099-1.779-1.099-2.669v-0.183c-0.263-0.277-0.393-0.59-0.393-0.938
	c0-0.036,0.035-0.372,0.105-1.01c0.018-0.386-0.018-0.722-0.105-1.006l0.419-0.322c-0.314-0.372-0.471-0.857-0.471-1.451
	c0-0.889,0.034-1.479,0.104-1.768c0.175-0.653,0.602-1.072,1.284-1.256c0.016,0.066,0.297,0.087,0.836,0.064
	c0.332-0.013,0.664-0.028,0.994-0.04c1.519,0.08,3.997,0.125,7.434,0.141c4.869,0.034,10.164,0.019,15.887-0.052
	c0.716,0.211,1.057,0.688,1.022,1.425c-0.017,0.422-0.009,1.048,0.025,1.88c0.036,0.989,0.053,1.669,0.053,2.035
	c0,1.814-0.261,3.221-0.785,4.221c-0.698,1.356-1.945,2.233-3.743,2.631c-0.244,0.051-0.598,0.176-1.059,0.373
	c-0.463,0.198-0.87,0.321-1.219,0.37c-0.191,0.029-0.392,0.039-0.601,0.034c-1.257,0.006-3.639,0.094-7.146,0.266V46.184z
	 M4.929,39.139c0.122-0.052,0.183-0.156,0.183-0.313c0-0.21-0.113-0.317-0.34-0.318L4.72,38.514v0.394
	C4.72,39.03,4.79,39.108,4.929,39.139 M4.929,40.919l0.261-0.011v-0.21l-0.261-0.014V40.919z M6.447,35.885
	c0.122-0.121,0.183-0.199,0.183-0.235l-0.025-0.074l-0.366,0.183L6.447,35.885z M6.997,37.456l0.053-0.008
	c0.069-0.028,0.173-0.077,0.314-0.15L6.997,37.01c-0.14,0.073-0.209,0.145-0.209,0.215C6.84,37.287,6.909,37.363,6.997,37.456
	 M6.997,39c0.14-0.055,0.209-0.152,0.209-0.292v-0.183l-0.392,0.317L6.997,39z M6.814,39.943h0.183v-0.184L6.814,39.943z
	 M7.364,36.514l0.078,0.015c0.087-0.012,0.184-0.093,0.288-0.238c0.105-0.146,0.183-0.222,0.235-0.23l-0.393-0.153L7.364,36.514z
	 M11.341,41.178v-0.156c0.279-0.198,0.62-0.298,1.021-0.305c0.314,0.043,0.793,0.097,1.439,0.162
	c0.159-0.111,0.254-0.167,0.289-0.172c0.121-0.001,0.349,0.107,0.68,0.32l0.367-0.286c0.192,0.057,0.461,0.071,0.811,0.039
	c0.507-0.036,0.776-0.059,0.811-0.063c0.541,0.01,0.881,0.17,1.021,0.481c0.017-0.194,0.131-0.332,0.342-0.415l0.757,0.127
	l0.419-0.165c0.157,0.066,0.331,0.128,0.524,0.187c0.104,0.003,0.271-0.03,0.497-0.098c0.227-0.049,0.401-0.075,0.524-0.075
	c0.139,0.033,0.314,0.078,0.523,0.136c0.156-0.041,0.414-0.064,0.771-0.072c0.358-0.008,0.564,0.019,0.616,0.082
	c0.592-0.016,1.165-0.193,1.715-0.534c0.549-0.34,0.824-0.746,0.824-1.216c0-0.786-0.68-1.177-2.041-1.175
	c-0.297-0.009-0.55,0.045-0.76,0.162c-0.297-0.115-0.619-0.173-0.969-0.175c-0.278,0.004-0.701,0.039-1.268,0.102
	c-0.567,0.065-1,0.091-1.296,0.081c-0.157,0.005-0.379-0.027-0.667-0.101c-0.288-0.071-0.52-0.104-0.694-0.096
	c-0.244,0-0.606,0.025-1.086,0.077c-0.481,0.051-0.843,0.078-1.086,0.078c-0.124,0-0.301-0.031-0.537-0.094
	c-0.235-0.062-0.405-0.086-0.51-0.07c-0.193-0.008-0.488,0.026-0.889,0.1c-0.403,0.093-0.709,0.137-0.917,0.13
	c-0.716-0.001-1.117-0.23-1.204-0.69c-0.192,0.221-0.593,0.374-1.205,0.46c-0.104,0.015-0.287,0.042-0.549,0.079
	c-0.244,0.018-0.418,0.034-0.524,0.049c-0.906,0.13-1.36,0.448-1.36,0.954c0,0.262,0.165,0.569,0.497,0.923
	c0.28,0.257,0.559,0.513,0.837,0.771c0.104-0.051,0.219-0.085,0.341-0.101c0.279-0.041,0.61,0.007,0.994,0.145
	C10.714,40.91,11.028,41.048,11.341,41.178 M7.965,41.793v-0.158l-0.208,0.004L7.965,41.793z M8.123,37.767
	c0.139-0.125,0.21-0.206,0.21-0.241l-0.028-0.074l-0.34,0.179L8.123,37.767z M8.62,42.876c0.173,0.011,0.262-0.062,0.262-0.22
	c0-0.104-0.07-0.19-0.21-0.258l-0.367,0.314C8.392,42.77,8.497,42.824,8.62,42.876 M8.515,35.38l0.263-0.011V35.16l-0.263-0.014
	V35.38z M9.431,35.904c0.158-0.059,0.236-0.166,0.236-0.322c0-0.139-0.078-0.233-0.236-0.28l-0.157,0.153v0.184
	C9.274,35.795,9.327,35.883,9.431,35.904 M9.823,37.025c0.139-0.055,0.21-0.144,0.21-0.266c0-0.087-0.071-0.164-0.21-0.232
	c-0.052,0.06-0.121,0.131-0.209,0.214C9.649,36.806,9.719,36.9,9.823,37.025 M10.19,42.73c-0.053-0.044-0.1-0.182-0.144-0.411
	c-0.045-0.229-0.117-0.354-0.223-0.374l-0.156,0.154C9.876,42.383,10.05,42.594,10.19,42.73 M10.923,36.083
	c0.279-0.006,0.418-0.174,0.418-0.506c0-0.157-0.051-0.297-0.157-0.422c-0.418,0.234-0.628,0.439-0.628,0.613
	c0,0.069,0.009,0.121,0.027,0.154C10.687,36.029,10.801,36.082,10.923,36.083 M11.551,37.249l0.288-0.016v-0.208l-0.288-0.011
	V37.249z M12.598,45.526l0.052-0.008l0.052-0.164c0-0.157-0.078-0.259-0.234-0.306c-0.123,0.139-0.184,0.227-0.184,0.262v0.052
	C12.353,45.422,12.458,45.477,12.598,45.526 M13.801,35.619l0.211-0.136l-0.393-0.18l-0.026,0.082
	C13.645,35.448,13.715,35.525,13.801,35.619 M14.483,42.142l0.079-0.038l0.025-0.056c0-0.156-0.114-0.237-0.34-0.238l-0.079,0.01
	v0.158C14.255,42.034,14.36,42.09,14.483,42.142 M14.927,46.083l0.288-0.015v-0.21l-0.288-0.01V46.083z M15.137,36.474l0.288,0.01
	v-0.235l-0.288-0.011V36.474z M16.759,41.686l0.078-0.013v-0.078c-0.051-0.062-0.122-0.139-0.208-0.232l-0.183,0.131
	C16.55,41.566,16.655,41.63,16.759,41.686 M16.629,33.538l0.313,0.007V33.31l-0.313-0.008V33.538z M17.205,37.721l0.288,0.012
	v-0.235l-0.288-0.012V37.721z M18.122,34.737l0.025-0.004c-0.07-0.303-0.192-0.574-0.367-0.81c-0.122,0.069-0.183,0.173-0.183,0.313
	v0.184C17.684,34.53,17.858,34.634,18.122,34.737 M18.905,37.504V37.4c-0.052-0.046-0.113-0.116-0.182-0.211l-0.183,0.157
	l0.287,0.144L18.905,37.504z M19.298,43.363c0.123-0.122,0.183-0.2,0.183-0.236c0-0.14-0.095-0.213-0.287-0.219
	c-0.122,0-0.218,0.055-0.289,0.172L19.298,43.363z M20.214,36.505l0.314-0.019v-0.235l-0.314,0.019V36.505z M20.817,35.634
	c0.104-0.068,0.156-0.128,0.156-0.179c0-0.071-0.056-0.172-0.169-0.304c-0.115-0.133-0.18-0.223-0.197-0.272
	c-0.139,0.107-0.21,0.177-0.21,0.213v0.078C20.397,35.256,20.537,35.413,20.817,35.634 M20.817,37.676
	c0.121-0.106,0.182-0.254,0.182-0.446c0-0.228-0.086-0.346-0.26-0.355l-0.052,0.008c-0.019,0.001-0.045,0.006-0.08,0.01v0.473
	C20.607,37.486,20.676,37.591,20.817,37.676 M21.548,43.564c-0.051-0.044-0.122-0.201-0.208-0.468
	c-0.089-0.266-0.21-0.423-0.367-0.47l-0.156,0.126L21.548,43.564z M21.864,41.87l0.104-0.04l-0.052-0.046
	c0-0.017,0.069-0.098,0.21-0.239l-0.394-0.153c-0.139,0.141-0.21,0.221-0.21,0.239c0,0.035,0.049,0.085,0.145,0.149
	C21.762,41.845,21.827,41.875,21.864,41.87 M22.126,36.258c0.139-0.125,0.209-0.205,0.209-0.24v-0.052l-0.367,0.158L22.126,36.258z
	 M22.884,36.751l0.367-0.289l-0.21-0.179l-0.314,0.307L22.884,36.751z M23.251,35.023v-0.131l-0.21,0.005L23.251,35.023z
	 M23.644,37.375c0.139-0.056,0.208-0.134,0.208-0.24c0-0.104-0.069-0.18-0.208-0.23l-0.21,0.159v0.053
	C23.434,37.152,23.503,37.238,23.644,37.375 M23.434,42.955l0.21-0.004v-0.184L23.434,42.955z M25.161,41.712
	c0.14-0.073,0.211-0.179,0.211-0.319c0-0.139-0.071-0.242-0.211-0.309l-0.209,0.16v0.184C24.952,41.549,25.022,41.645,25.161,41.712
	 M25.161,37.969c0.297-0.164,0.445-0.361,0.445-0.588l-0.052-0.175c-0.297,0.147-0.444,0.325-0.444,0.535
	C25.11,37.775,25.126,37.852,25.161,37.969 M25.921,38.908v-0.184c0-0.14-0.07-0.225-0.21-0.258l-0.157,0.128L25.921,38.908z
	 M25.921,40.164v-0.053c0-0.034-0.07-0.12-0.21-0.258l-0.157,0.18l0.289,0.115L25.921,40.164z M25.921,36.055l0.26,0.014v-0.235
	l-0.26,0.011V36.055z M27.413,38.928h0.182c0-0.243,0.07-0.393,0.21-0.448l-0.21-0.179c-0.122,0.052-0.182,0.148-0.182,0.287V38.928
	z M28.564,39.104h0.183V38.92L28.564,39.104z"/>
	<path d="M16.158,53.01c-0.017,2.426-0.034,4.85-0.05,7.276c-0.054,4.693-0.156,7.276-0.3,7.747l0.152,0.157
	c-0.422,2.774-1.066,4.695-1.932,5.757c-1,1.24-2.599,1.86-4.798,1.86c-1.901,0-3.307-0.446-4.213-1.336
	c-0.789-0.784-1.299-2.031-1.534-3.742c-0.127-0.925-0.195-2.199-0.209-3.821c-0.042-3.107-0.065-7.739-0.072-13.898
	c0.014-1.047-0.076-1.902-0.272-2.566l0.473-1.701c0.528-0.349,1.116-0.524,1.762-0.524c0.436,0,0.924,0.061,1.464,0.184
	l0.318-0.158c0.164,0.054,0.408,0.106,0.729,0.158c0.307,0.332,0.458,0.681,0.457,1.047c-0.006,0.209-0.064,0.365-0.171,0.471
	c0.045,0.21,0.061,1.815,0.045,4.815c-0.017,3.001-0.065,4.659-0.143,4.974c0.083,0.227,0.112,0.916,0.086,2.066
	c-0.025,1.153-0.068,1.886-0.131,2.2c0.055,0.14,0.09,0.271,0.107,0.393c0.024,0.175,0.008,0.414-0.047,0.719
	c-0.053,0.306-0.067,0.545-0.044,0.72c0.016,0.122,0.051,0.245,0.102,0.366l-0.145,0.471l0.155,0.943l-0.171,0.471
	c0.168,0.592,0.305,1.012,0.408,1.256c0.204,0.472,0.464,0.778,0.78,0.916c0.033-0.017,0.074-0.026,0.126-0.026
	c0.122,0,0.328,0.096,0.616,0.288c0.289,0.193,0.46,0.297,0.514,0.314l0.42-0.576l-0.468-0.158c0.262-0.26,0.52-0.531,0.78-0.811
	c0.11-0.208,0.171-0.722,0.18-1.544l-0.164-0.628c0.037-0.104,0.047-0.681,0.025-1.726c-0.019-0.646,0.231-0.987,0.751-1.021
	c-0.327-0.087-0.551-0.577-0.672-1.466c-0.06-0.437-0.073-1.859-0.035-4.267c0.021-0.611,0.03-1.561,0.027-2.853l0.164-0.524
	l-0.153-0.365l0.028-0.55l0.295-0.341l-0.29-0.392l0.182-4.789c0.657-0.419,1.387-0.629,2.191-0.629c0.871,0,1.708,0.123,2.51,0.366
	C16.122,49.756,16.179,51.247,16.158,53.01 M4.183,62.458L4.187,62.3H4.056L4.183,62.458z M4.788,56.36l-0.01-0.262H4.542
	l0.009,0.262H4.788z M5.541,64.343c-0.072-0.141-0.196-0.21-0.37-0.21H4.648c0.096,0.069,0.199,0.147,0.307,0.236
	c0.107,0.086,0.213,0.13,0.319,0.13C5.361,64.499,5.45,64.447,5.541,64.343 M4.997,60.94c-0.011-0.07-0.068-0.166-0.172-0.289
	l-0.136,0.158c0.107,0.139,0.177,0.209,0.212,0.209C4.934,61.002,4.965,60.976,4.997,60.94 M5.343,67.299L5.21,67.09l-0.155,0.209
	l0.156,0.184L5.343,67.299z M5.537,70.624l-0.013-0.289h-0.21l-0.013,0.289H5.537z M5.991,65.336L5.98,65.258l-0.057-0.026
	c-0.018,0-0.104,0.071-0.258,0.21l0.156,0.182C5.88,65.555,5.937,65.46,5.991,65.336 M5.991,57.119l0.016-0.262H5.771l-0.017,0.262
	H5.991z M6.184,60.443V60.26H5.872L6.184,60.443z M6.426,67.562l-0.01-0.079H6.364c-0.176,0-0.266,0.105-0.271,0.314l0.005,0.053
	H6.23C6.29,67.78,6.356,67.684,6.426,67.562 M6.602,71.905l-0.013-0.286h-0.21l-0.013,0.286H6.602z M7.122,73.215l-0.157-0.183
	l-0.157,0.183l0.156,0.183L7.122,73.215z M7.048,71.723l0.016-0.262H6.83l0.009,0.262H7.048z M7.627,53.585L6.87,53.036l0.598,0.732
	L7.627,53.585z M7.705,60.651l-0.632,0.551h0.184L7.705,60.651z M7.263,58.768l0.004-0.158H7.111L7.263,58.768z M7.692,62.851
	c-0.142-0.141-0.23-0.21-0.266-0.21c-0.156,0-0.229,0.104-0.217,0.314c-0.004,0.106,0.044,0.2,0.144,0.288L7.692,62.851z
	 M7.567,67.483l-0.013-0.289H7.318l0.013,0.289H7.567z M8.808,70.807c0.002-0.105-0.049-0.218-0.153-0.339l-0.161,0.156
	c0.099,0.087,0.179,0.156,0.238,0.21L8.808,70.807z M10.158,73.215c-0.072-0.139-0.159-0.209-0.264-0.209H9.815
	c-0.018,0-0.061,0.009-0.127,0.026l0.285,0.366L10.158,73.215z M10.919,72.666c-0.141-0.141-0.229-0.211-0.264-0.211l-0.048,0.027
	l0.129,0.366L10.919,72.666z M11.981,69.525c-0.052-0.14-0.15-0.21-0.289-0.21c-0.158,0-0.253,0.07-0.287,0.21l0.131,0.183h0.156
	C11.833,69.708,11.929,69.648,11.981,69.525 M11.648,67.85l-0.011-0.262h-0.208l-0.016,0.262H11.648z M11.848,56.124
	c0.01-0.052-0.039-0.157-0.148-0.313l-0.158,0.182c0.121,0.122,0.199,0.183,0.234,0.183h0.053
	C11.843,56.158,11.851,56.141,11.848,56.124 M11.9,63.766l0.026-0.182c-0.008-0.193-0.068-0.305-0.177-0.341l-0.135,0.341
	c0.098,0.087,0.168,0.148,0.208,0.182H11.9z M11.858,73.215l0.014-0.287h-0.209l-0.013,0.287H11.858z M13.231,52.852
	c-0.051-0.122-0.12-0.183-0.208-0.183c-0.122,0-0.209,0.061-0.262,0.183l0.181,0.184C12.995,53.036,13.091,52.975,13.231,52.852
	 M13.241,65.729l0.013-0.105h-0.079c-0.017,0-0.096,0.063-0.237,0.184l0.156,0.183C13.153,65.904,13.202,65.817,13.241,65.729
	 M13.619,60.076l-0.157-0.183l-0.157,0.183l0.156,0.184L13.619,60.076z M13.614,66.725l-0.013-0.288h-0.21l-0.013,0.288H13.614z
	 M14.258,69.708l0.001-0.183c-0.367,0-0.569-0.07-0.604-0.21l-0.129,0.21c0.054,0.14,0.142,0.208,0.265,0.208h0.156h0.236
	C14.197,69.717,14.223,69.708,14.258,69.708 M13.899,67.85l-0.009-0.262h-0.21l-0.017,0.262H13.899z M15.231,56.752l0.013-0.288
	h-0.235l-0.012,0.288H15.231z"/>
	<path d="M30.905,56.334c-0.211,1.394-0.414,2.782-0.609,4.16c-0.27,1.344-0.977,2.488-2.123,3.43
	c-0.545,0.471-1.198,0.731-1.958,0.785c-1.086,0.104-1.68,0.165-1.781,0.184c-0.617,0.208-1.138,0.731-1.566,1.57l0.365,8.008
	c0.002,0.14-0.123,0.376-0.375,0.708c-0.251,0.331-0.44,0.548-0.565,0.653c-0.22-0.087-0.532-0.13-0.933-0.13
	c-0.14,0-0.379,0.008-0.717,0.025c-0.337,0.018-0.593,0.026-0.768,0.026c-1.327,0-1.984-0.47-1.972-1.413
	c0.039-2.251,0.104-5.609,0.19-10.076l0.186,0.027c0.245-0.123,0.488-0.323,0.729-0.603l0.012-0.104l-0.171-0.288l-0.731,0.208
	l-0.022-2.459c0.004-0.349,0.067-1.109,0.186-2.277c-0.085-0.105-0.127-0.359-0.131-0.76c0.033-2.564,0.009-5.418-0.073-8.558
	c-0.017-0.385,0.267-0.786,0.856-1.205c0.768,0,2.015,0.062,3.742,0.184c1.656,0.122,2.887,0.183,3.69,0.183
	c0.47,0,0.896,0.109,1.275,0.327c0.379,0.219,0.673,0.336,0.885,0.353c1.138,1.047,1.863,2.706,2.174,4.974
	c0.092,0.68,0.145,1.387,0.16,2.119L30.905,56.334z M19.822,60.835c-0.029-0.07-0.094-0.106-0.198-0.106
	c-0.158,0-0.352,0.115-0.582,0.342c0.121,0.122,0.199,0.183,0.234,0.183C19.382,61.254,19.563,61.114,19.822,60.835 M20.204,70.702
	c-0.054-0.017-0.148-0.086-0.278-0.209c-0.13-0.121-0.229-0.183-0.3-0.183c-0.07,0-0.147,0.069-0.233,0.208
	c0.053,0,0.149,0.062,0.288,0.184c0.138,0.123,0.234,0.183,0.287,0.183C20.02,70.885,20.098,70.825,20.204,70.702 M19.603,68.033
	l0.001-0.183h-0.183L19.603,68.033z M20.352,55.731c-0.072-0.138-0.16-0.209-0.265-0.209c-0.087,0-0.156,0.071-0.205,0.209
	l0.158,0.209C20.093,55.94,20.197,55.872,20.352,55.731 M20.61,59.526c-0.054-0.139-0.142-0.209-0.264-0.209h-0.209l0.315,0.393
	L20.61,59.526z M20.741,61.436H20.61l-0.181,0.394L20.741,61.436z M20.864,66.541l-0.185-0.21l-0.128,0.21l0.129,0.184
	L20.864,66.541z M21.082,58.768L20.77,58.4l-0.136,0.158l0.315,0.393L21.082,58.768z M21.1,64.631l0.014-0.288h-0.238l0.015,0.288
	H21.1z M22.124,60.835c-0.138-0.122-0.322-0.184-0.549-0.184c-0.261,0-0.434,0.14-0.518,0.42l0.127,0.156
	c0.07,0.018,0.125,0.027,0.16,0.027c0.087,0,0.159-0.013,0.217-0.04C21.618,61.188,21.806,61.061,22.124,60.835 M21.711,58.008
	c-0.054-0.139-0.134-0.209-0.238-0.209c-0.105,0-0.183,0.07-0.233,0.209c0.106,0.139,0.177,0.21,0.212,0.21
	C21.469,58.218,21.555,58.147,21.711,58.008 M21.827,62.877c-0.006-0.052-0.065-0.167-0.177-0.34
	c-0.095,0.069-0.15,0.173-0.167,0.314c-0.002,0.104,0.053,0.191,0.168,0.26C21.696,63.06,21.754,62.982,21.827,62.877
	 M22.497,56.491c-0.442-0.297-0.697-0.445-0.766-0.445c-0.037,0-0.094,0.026-0.174,0.078c0.253,0.314,0.502,0.472,0.747,0.472
	C22.389,56.596,22.454,56.56,22.497,56.491 M22.095,64.447c-0.141-0.14-0.221-0.21-0.237-0.21c-0.14,0-0.215,0.097-0.222,0.288
	c0.003,0.157,0.05,0.254,0.144,0.288L22.095,64.447z M22.4,52.146c-0.055-0.139-0.159-0.21-0.318-0.21
	c-0.208,0-0.312,0.071-0.31,0.21l0.007,0.051c-0.013,0.036-0.016,0.079-0.009,0.132h0.367C22.276,52.329,22.364,52.267,22.4,52.146
	 M22.517,62.171l-0.014-0.289h-0.21l-0.013,0.289H22.517z M26.184,59.71c-0.216-0.053-0.48-0.184-0.787-0.393
	c0.584-1.099,0.748-2.565,0.498-4.396c-0.094-0.681-0.278-1.135-0.552-1.362c-0.155-0.104-0.461-0.206-0.92-0.301
	c-0.458-0.095-0.827-0.275-1.106-0.537l-0.164,0.34h0.315c0.099,0.088,0.152,0.219,0.158,0.394c0.003,0.401-0.119,0.602-0.362,0.602
	c-0.07,0-0.192-0.062-0.365-0.183c-0.175-0.124-0.299-0.192-0.369-0.211c0.021,0.158,0.095,0.319,0.223,0.484
	c0.126,0.167,0.254,0.32,0.376,0.459l0.022,0.158c-0.001,0.243-0.113,0.636-0.336,1.176c0.205,0.227,0.299,0.533,0.283,0.917
	c-0.004,0.104-0.029,0.366-0.076,0.786c-0.027,0.313-0.026,0.575,0.003,0.785c0.066,0.488,0.247,0.885,0.542,1.19
	c0.295,0.306,0.652,0.458,1.07,0.458c-0.087,0.122-0.142,0.235-0.162,0.34l0.007,0.052c0.245,0,0.393-0.06,0.447-0.182l-0.443-0.366
	c0.113-0.316,0.257-0.473,0.432-0.473c0.069,0,0.224,0.114,0.465,0.341s0.397,0.34,0.465,0.34
	C25.989,60.128,26.1,59.989,26.184,59.71 M22.861,59.526l-0.009-0.261h-0.236l0.009,0.261H22.861z M22.852,66.725l0.001-0.184
	h-0.156L22.852,66.725z M22.961,61.594l0.017-0.262h-0.237l0.01,0.262H22.961z M23.364,63.766l-0.011-0.078h-0.132l-0.002,0.366
	C23.292,63.95,23.34,63.853,23.364,63.766 M23.856,60.679l-0.16-0.028c-0.158,0-0.262,0.062-0.316,0.184l0.163,0.236L23.856,60.679z
	 M24.153,61.882c0.007-0.193-0.058-0.288-0.197-0.288c-0.193,0-0.291,0.115-0.293,0.34l0.005,0.052
	c0.142,0.141,0.229,0.21,0.266,0.21c0.016,0,0.058-0.043,0.125-0.132C24.126,61.978,24.157,61.917,24.153,61.882 M25.343,63.688
	c-0.073-0.139-0.186-0.21-0.344-0.21h-0.21h-0.288l-0.049,0.026c-0.117,0.037-0.174,0.123-0.172,0.262
	c-0.01,0.193,0.047,0.288,0.169,0.288h0.368C25.078,64.054,25.253,63.933,25.343,63.688 M27.657,52.878
	c-0.322-0.192-0.648-0.384-0.969-0.574c-0.395-0.211-0.742-0.325-1.041-0.341c-0.086,0.139-0.172,0.208-0.26,0.208
	c-0.07,0-0.167-0.039-0.292-0.117c-0.124-0.078-0.211-0.118-0.263-0.118c-0.089,0-0.174,0.071-0.26,0.21l0.604,0.392
	c0.169-0.156,0.378-0.234,0.622-0.234c0.191,0,0.461,0.099,0.813,0.299c0.35,0.201,0.622,0.302,0.812,0.302
	C27.564,52.905,27.641,52.896,27.657,52.878 M26.452,55.731l0.016-0.262h-0.237l-0.016,0.262H26.452z M27.727,60.076l-0.625,0.603
	h0.157L27.727,60.076z M27.444,58.008l-0.161-0.209l-0.155,0.393l0.03,0.026C27.192,58.218,27.288,58.147,27.444,58.008
	 M27.618,62.353l0.016-0.261H27.4l0.01,0.261H27.618z M27.684,57.093l0.01-0.315h-0.237l0.018,0.315H27.684z M29.012,55.705
	c0.008-0.07-0.043-0.183-0.151-0.34c-0.112,0.07-0.172,0.157-0.173,0.262c0.001,0.139,0.058,0.245,0.173,0.313
	C28.887,55.872,28.936,55.792,29.012,55.705"/>
	<path d="M36.981,72.018v1.352l-1.621,1.023v0.012h1.621v1.086h-4.212v-1.622c0-0.826,0.397-1.452,1.295-1.452
	c0.581,0,1.085,0.321,1.191,0.913L36.981,72.018z M34.657,74.405V74.3c0-0.354-0.066-0.753-0.525-0.753
	c-0.458,0-0.523,0.399-0.523,0.753v0.105H34.657z"/>
	<polygon points="33.696,63.275 34.4,63.275 34.4,62.051 35.327,62.051 35.327,63.275 36.054,63.275 36.054,61.984 36.981,61.984
	36.981,64.359 32.769,64.359 32.769,61.984 33.696,61.984 "/>
	<path d="M34.181,50.964c-0.299,0.223-0.462,0.582-0.462,0.952c0,0.665,0.514,1.114,1.167,1.114c0.665,0,1.146-0.454,1.146-1.129
	c0-0.355-0.174-0.709-0.447-0.937h1.312c0.111,0.361,0.196,0.621,0.196,0.958c0,0.583-0.225,1.136-0.621,1.568
	c-0.418,0.46-0.965,0.669-1.59,0.669c-0.577,0-1.131-0.215-1.543-0.613c-0.425-0.411-0.681-1.004-0.681-1.591
	c0-0.347,0.078-0.669,0.21-0.991H34.181z"/>
	<path d="M34.796,38.522c1.363,0,2.324,0.969,2.324,2.308c0,1.341-0.961,2.31-2.324,2.31c-1.272,0-2.167-1.108-2.167-2.31
	C32.629,39.63,33.524,38.522,34.796,38.522 M34.801,42.01c0.727,0,1.258-0.531,1.258-1.18c0-0.647-0.531-1.179-1.258-1.179
	c-0.581,0-1.111,0.532-1.111,1.179C33.69,41.479,34.22,42.01,34.801,42.01"/>
	<path d="M36.981,27.18v1.352l-1.621,1.025v0.01h1.621v1.086h-4.212V29.03c0-0.825,0.397-1.451,1.295-1.451
	c0.581,0,1.085,0.321,1.191,0.914L36.981,27.18z M34.657,29.567v-0.105c0-0.354-0.066-0.753-0.525-0.753
	c-0.458,0-0.523,0.399-0.523,0.753v0.105H34.657z"/>
	<path d="M32.769,19.523v-1.539c0-1.164,0.922-2.122,2.107-2.122c1.183,0,2.105,0.963,2.105,2.122v1.539H32.769z M36.054,18.437
	v-0.243c0-0.649-0.358-1.202-1.178-1.202c-0.756,0-1.18,0.492-1.18,1.19v0.255H36.054z"/>
	<path d="M33.853,5.7c-0.167,0.199-0.28,0.455-0.28,0.72c0,0.199,0.117,0.465,0.352,0.465c0.246,0,0.341-0.293,0.402-0.482
	l0.084-0.276c0.174-0.582,0.471-1.031,1.15-1.031c0.42,0,0.85,0.1,1.135,0.432c0.28,0.327,0.397,0.764,0.397,1.185
	c0,0.526-0.18,1.042-0.481,1.467l-0.883-0.464c0.24-0.271,0.436-0.593,0.436-0.964c0-0.255-0.129-0.526-0.424-0.526
	c-0.308,0-0.414,0.426-0.48,0.659c-0.196,0.681-0.375,1.13-1.19,1.13c-0.856,0-1.413-0.604-1.413-1.44
	c0-0.42,0.132-0.936,0.346-1.307L33.853,5.7z"/>
</svg>
