<svg xmlns="http://www.w3.org/2000/svg" viewBox="0 0 128 128" style="enable-background:new 0 0 128 128" xml:space="preserve">
  <style>@media (prefers-color-scheme:dark){path{fill:#fff}}</style>
  <path d="M104 4H24C13 4 4 13 4 24v80c0 11 9 20 20 20h80c11 0 20-9 20-20V24c0-11-9-20-20-20zM41.6 77H17.9V19h22.7c2.9 0 5.6.3 8 1s4.5 1.7 6.2 3 3 2.9 4 4.9c1 1.9 1.4 4.2 1.4 6.8 0 1.9-.2 3.4-.7 4.7s-1 2.4-1.5 3.3c-.6 1-1.4 1.9-2.2 2.6 1.3.8 2.4 1.9 3.5 3.1.9 1.1 1.7 2.5 2.4 4.2s1.1 3.7 1.1 6.2c0 2.8-.5 5.3-1.5 7.6s-2.4 4.2-4.2 5.8c-1.8 1.6-4.1 2.8-6.7 3.7-2.6.7-5.6 1.1-8.8 1.1zm50.2 32-1.9-5.2H72.3l-1.9 5.2H52.2l22-58h13.9l22 58H91.8zM37.9 53.3h-2.1v10.1h2.1c4.4 0 6.6-1.7 6.6-5 0-3.5-2.2-5.1-6.6-5.1zm4.4-16.6c0-2.7-1.5-4-4.3-4h-2.1v8H38c2.8 0 4.3-1.4 4.3-4zM77.2 91H85l-3.9-10.2L77.2 91z" fill="#000"/>
</svg>
