<svg xmlns="http://www.w3.org/2000/svg" viewBox="0 0 100 100">
  <rect width="100" height="100" rx="20"/>
  <path fill="#fff" d="M44.27 41.15q0 2.7-1.41 4.68-1.41 1.98-4.23 3.18 3.48 1.14 5.22 3.42 1.74 2.28 1.74 5.4 0 5.7-4.14 8.46-4.14 2.76-12 2.76-1.14 0-2.43-.06-1.29-.06-2.61-.21-1.32-.15-2.64-.42t-2.46-.63q-2.88-.96-2.88-3.54V34.85q0-1.14.6-1.74.6-.6 1.68-.96 2.04-.66 4.74-.93t5.64-.27q7.26 0 11.22 2.49 3.96 2.49 3.96 7.71Zm-6.6 16.38q0-2.4-1.71-3.78t-4.95-1.38h-7.02v10.02q1.14.3 2.73.42t3.15.12q3.66 0 5.73-1.29 2.07-1.29 2.07-4.11ZM23.99 37.37v9.3h6.06q3.24 0 4.83-1.32 1.59-1.32 1.59-3.66 0-4.74-7.32-4.74-1.5 0-2.85.12t-2.31.3Zm51.12 28.26-1.8-6H59.87q-.66 2.22-1.41 4.62-.75 2.4-1.23 3.96-.6.24-1.29.42-.69.18-1.71.18-2.04 0-3.18-.81-1.14-.81-1.14-2.31 0-.72.21-1.41t.51-1.59q.48-1.68 1.29-4.05t1.74-5.16q.93-2.79 2.01-5.76 1.08-2.97 2.07-5.76.99-2.79 1.92-5.22.93-2.43 1.59-4.17.78-.42 2.31-.84t3.09-.42q2.1 0 3.84.63 1.74.63 2.22 2.01 1.2 3.3 2.64 7.59 1.44 4.29 2.91 8.85 1.47 4.56 2.85 8.94 1.38 4.38 2.46 7.86-.6.66-1.65 1.11-1.05.45-2.49.45-2.1 0-2.97-.75-.87-.75-1.35-2.37Zm-8.22-27.48h-.3q-.54 1.5-1.17 3.36-.63 1.86-1.32 3.87-.69 2.01-1.41 4.08-.72 2.07-1.38 4.05h10.44l-4.86-15.36Z"/>
</svg>
